<svg width="360" height="192" viewBox="0 0 360 192" fill="none" xmlns="http://www.w3.org/2000/svg">
<g clip-path="url(#clip0_147_56)">
<path d="M104.309 23.8601C105.791 23.8601 106.992 22.6576 106.992 21.1741C106.992 19.6907 105.791 18.4882 104.309 18.4882C102.827 18.4882 101.626 19.6907 101.626 21.1741C101.626 22.6576 102.827 23.8601 104.309 23.8601Z" fill="#F2F2F2"/>
<path d="M93.6165 23.8601C95.0982 23.8601 96.2994 22.6576 96.2994 21.1741C96.2994 19.6907 95.0982 18.4882 93.6165 18.4882C92.1348 18.4882 90.9336 19.6907 90.9336 21.1741C90.9336 22.6576 92.1348 23.8601 93.6165 23.8601Z" fill="#F2F2F2"/>
<path d="M82.9241 23.8601C84.4058 23.8601 85.607 22.6576 85.607 21.1741C85.607 19.6907 84.4058 18.4882 82.9241 18.4882C81.4424 18.4882 80.2412 19.6907 80.2412 21.1741C80.2412 22.6576 81.4424 23.8601 82.9241 23.8601Z" fill="#F2F2F2"/>
<path d="M72.2317 23.8601C73.7134 23.8601 74.9146 22.6576 74.9146 21.1741C74.9146 19.6907 73.7134 18.4882 72.2317 18.4882C70.75 18.4882 69.5488 19.6907 69.5488 21.1741C69.5488 22.6576 70.75 23.8601 72.2317 23.8601Z" fill="#F2F2F2"/>
<path d="M104.309 35.0743C105.791 35.0743 106.992 33.8717 106.992 32.3883C106.992 30.9049 105.791 29.7024 104.309 29.7024C102.827 29.7024 101.626 30.9049 101.626 32.3883C101.626 33.8717 102.827 35.0743 104.309 35.0743Z" fill="#F2F2F2"/>
<path d="M93.6165 35.0743C95.0982 35.0743 96.2994 33.8717 96.2994 32.3883C96.2994 30.9049 95.0982 29.7024 93.6165 29.7024C92.1348 29.7024 90.9336 30.9049 90.9336 32.3883C90.9336 33.8717 92.1348 35.0743 93.6165 35.0743Z" fill="#F2F2F2"/>
<path d="M82.9241 35.0743C84.4058 35.0743 85.607 33.8717 85.607 32.3883C85.607 30.9049 84.4058 29.7024 82.9241 29.7024C81.4424 29.7024 80.2412 30.9049 80.2412 32.3883C80.2412 33.8717 81.4424 35.0743 82.9241 35.0743Z" fill="#F2F2F2"/>
<path d="M72.2317 35.0743C73.7134 35.0743 74.9146 33.8717 74.9146 32.3883C74.9146 30.9049 73.7134 29.7024 72.2317 29.7024C70.75 29.7024 69.5488 30.9049 69.5488 32.3883C69.5488 33.8717 70.75 35.0743 72.2317 35.0743Z" fill="#F2F2F2"/>
<path d="M104.309 46.2885C105.791 46.2885 106.992 45.0859 106.992 43.6025C106.992 42.1191 105.791 40.9166 104.309 40.9166C102.827 40.9166 101.626 42.1191 101.626 43.6025C101.626 45.0859 102.827 46.2885 104.309 46.2885Z" fill="#F2F2F2"/>
<path d="M93.6165 46.2885C95.0982 46.2885 96.2994 45.0859 96.2994 43.6025C96.2994 42.1191 95.0982 40.9166 93.6165 40.9166C92.1348 40.9166 90.9336 42.1191 90.9336 43.6025C90.9336 45.0859 92.1348 46.2885 93.6165 46.2885Z" fill="#F2F2F2"/>
<path d="M82.9241 46.2885C84.4058 46.2885 85.607 45.0859 85.607 43.6025C85.607 42.1191 84.4058 40.9166 82.9241 40.9166C81.4424 40.9166 80.2412 42.1191 80.2412 43.6025C80.2412 45.0859 81.4424 46.2885 82.9241 46.2885Z" fill="#F2F2F2"/>
<path d="M72.2317 46.2885C73.7134 46.2885 74.9146 45.0859 74.9146 43.6025C74.9146 42.1191 73.7134 40.9166 72.2317 40.9166C70.75 40.9166 69.5488 42.1191 69.5488 43.6025C69.5488 45.0859 70.75 46.2885 72.2317 46.2885Z" fill="#F2F2F2"/>
<path d="M104.309 57.5026C105.791 57.5026 106.992 56.3001 106.992 54.8167C106.992 53.3333 105.791 52.1307 104.309 52.1307C102.827 52.1307 101.626 53.3333 101.626 54.8167C101.626 56.3001 102.827 57.5026 104.309 57.5026Z" fill="#F2F2F2"/>
<path d="M93.6165 57.5026C95.0982 57.5026 96.2994 56.3001 96.2994 54.8167C96.2994 53.3333 95.0982 52.1307 93.6165 52.1307C92.1348 52.1307 90.9336 53.3333 90.9336 54.8167C90.9336 56.3001 92.1348 57.5026 93.6165 57.5026Z" fill="#F2F2F2"/>
<path d="M82.9241 57.5026C84.4058 57.5026 85.607 56.3001 85.607 54.8167C85.607 53.3333 84.4058 52.1307 82.9241 52.1307C81.4424 52.1307 80.2412 53.3333 80.2412 54.8167C80.2412 56.3001 81.4424 57.5026 82.9241 57.5026Z" fill="#F2F2F2"/>
<path d="M72.2317 57.5026C73.7134 57.5026 74.9146 56.3001 74.9146 54.8167C74.9146 53.3333 73.7134 52.1307 72.2317 52.1307C70.75 52.1307 69.5488 53.3333 69.5488 54.8167C69.5488 56.3001 70.75 57.5026 72.2317 57.5026Z" fill="#F2F2F2"/>
<path d="M104.309 68.7168C105.791 68.7168 106.992 67.5143 106.992 66.0309C106.992 64.5475 105.791 63.3449 104.309 63.3449C102.827 63.3449 101.626 64.5475 101.626 66.0309C101.626 67.5143 102.827 68.7168 104.309 68.7168Z" fill="#F2F2F2"/>
<path d="M93.6165 68.7168C95.0982 68.7168 96.2994 67.5143 96.2994 66.0309C96.2994 64.5475 95.0982 63.3449 93.6165 63.3449C92.1348 63.3449 90.9336 64.5475 90.9336 66.0309C90.9336 67.5143 92.1348 68.7168 93.6165 68.7168Z" fill="#F2F2F2"/>
<path d="M82.9241 68.7168C84.4058 68.7168 85.607 67.5143 85.607 66.0309C85.607 64.5475 84.4058 63.3449 82.9241 63.3449C81.4424 63.3449 80.2412 64.5475 80.2412 66.0309C80.2412 67.5143 81.4424 68.7168 82.9241 68.7168Z" fill="#F2F2F2"/>
<path d="M72.2317 68.7168C73.7134 68.7168 74.9146 67.5143 74.9146 66.0309C74.9146 64.5475 73.7134 63.3449 72.2317 63.3449C70.75 63.3449 69.5488 64.5475 69.5488 66.0309C69.5488 67.5143 70.75 68.7168 72.2317 68.7168Z" fill="#F2F2F2"/>
<path d="M104.309 79.931C105.791 79.931 106.992 78.7285 106.992 77.245C106.992 75.7616 105.791 74.5591 104.309 74.5591C102.827 74.5591 101.626 75.7616 101.626 77.245C101.626 78.7285 102.827 79.931 104.309 79.931Z" fill="#F2F2F2"/>
<path d="M93.6165 79.931C95.0982 79.931 96.2994 78.7285 96.2994 77.245C96.2994 75.7616 95.0982 74.5591 93.6165 74.5591C92.1348 74.5591 90.9336 75.7616 90.9336 77.245C90.9336 78.7285 92.1348 79.931 93.6165 79.931Z" fill="#F2F2F2"/>
<path d="M82.9241 79.931C84.4058 79.931 85.607 78.7285 85.607 77.245C85.607 75.7616 84.4058 74.5591 82.9241 74.5591C81.4424 74.5591 80.2412 75.7616 80.2412 77.245C80.2412 78.7285 81.4424 79.931 82.9241 79.931Z" fill="#F2F2F2"/>
<path d="M72.2317 79.931C73.7134 79.931 74.9146 78.7285 74.9146 77.245C74.9146 75.7616 73.7134 74.5591 72.2317 74.5591C70.75 74.5591 69.5488 75.7616 69.5488 77.245C69.5488 78.7285 70.75 79.931 72.2317 79.931Z" fill="#F2F2F2"/>
<path d="M80.7341 150.519V151.35C80.7353 152.726 81.2821 154.046 82.2544 155.02C83.2266 155.993 84.545 156.54 85.92 156.542H123.258C124.633 156.541 125.952 155.994 126.924 155.02C127.897 154.047 128.443 152.727 128.444 151.35V150.519C128.446 149.304 128.02 148.127 127.24 147.196C126.981 146.887 126.687 146.609 126.365 146.366C126.365 146.366 105.838 145.901 105.838 145.327H85.92C84.5452 145.329 83.2272 145.877 82.2551 146.85C81.283 147.823 80.736 149.143 80.7341 150.519Z" fill="#CCCCCC"/>
<path d="M107.586 156.335H102.193V191.224H107.586V156.335Z" fill="#CCCCCC"/>
<path d="M122.936 191.034C122.936 191.618 114.763 191.26 104.682 191.26C94.6004 191.26 86.4277 191.618 86.4277 191.034C86.4277 190.451 94.6004 185.825 104.682 185.825C114.763 185.825 122.936 190.451 122.936 191.034Z" fill="#CCCCCC"/>
<path d="M115.521 149.815C115.91 149.292 116.18 148.689 116.312 148.051C116.444 147.412 116.434 146.752 116.283 146.117C116.133 145.483 115.845 144.889 115.44 144.377C115.036 143.866 114.524 143.45 113.941 143.158L102.511 104.164L93.8064 108.432L107.779 145.42C107.355 146.432 107.315 147.566 107.669 148.605C108.023 149.645 108.746 150.518 109.7 151.06C110.655 151.601 111.774 151.774 112.847 151.544C113.92 151.315 114.871 150.699 115.521 149.815L115.521 149.815Z" fill="#A0616A"/>
<path d="M105.1 110.676L95.3581 113.316C95.0809 113.391 94.7908 113.406 94.5076 113.358C94.2243 113.311 93.9545 113.203 93.7166 113.042C93.4788 112.881 93.2783 112.671 93.129 112.425C92.9797 112.18 92.885 111.905 92.8514 111.619L91.6739 101.615C91.2981 100.193 91.5008 98.6796 92.2377 97.4071C92.9745 96.1346 94.1853 95.2065 95.6046 94.8263C97.0239 94.4461 98.5359 94.6448 99.809 95.379C101.082 96.1131 102.013 97.3227 102.396 98.7426L106.41 107.945C106.525 108.208 106.581 108.493 106.576 108.781C106.571 109.068 106.504 109.351 106.38 109.611C106.255 109.87 106.077 110.099 105.856 110.283C105.635 110.467 105.377 110.601 105.1 110.676H105.1Z" fill="#FF5300"/>
<path d="M118.067 186.945L123.153 186.945L125.573 173.738H118.066L118.067 186.945Z" fill="#A0616A"/>
<path d="M116.77 185.283L126.786 185.282H126.786C127.625 185.282 128.455 185.447 129.229 185.769C130.004 186.09 130.707 186.56 131.3 187.154C131.893 187.747 132.363 188.452 132.684 189.227C133.005 190.002 133.17 190.833 133.17 191.673V191.88L116.77 191.881L116.77 185.283Z" fill="#2F2E41"/>
<path d="M123.971 179.863C123.912 179.863 123.852 179.86 123.792 179.855L116.753 179.342C116.469 179.315 116.194 179.224 115.95 179.074C115.707 178.924 115.5 178.721 115.348 178.479C115.195 178.237 115.1 177.963 115.07 177.678C115.039 177.394 115.075 177.106 115.173 176.837L124.593 155.649C124.661 155.46 124.688 155.259 124.674 155.059C124.66 154.859 124.605 154.664 124.512 154.486C124.419 154.307 124.289 154.149 124.131 154.023C123.973 153.897 123.79 153.806 123.595 153.756C119.165 152.596 107.8 149.51 97.9615 145.898C93.7465 144.351 91.0918 142.115 90.0712 139.252C88.7258 135.478 90.7162 132.036 90.8016 131.891L90.8683 131.778L100.126 132.621L110.162 133.475L132.155 145.282C133.998 146.28 135.398 147.936 136.076 149.921C136.754 151.906 136.661 154.073 135.814 155.992L125.674 178.755C125.528 179.085 125.289 179.365 124.986 179.562C124.684 179.758 124.331 179.863 123.971 179.863Z" fill="#2F2E41"/>
<path d="M101.736 90.7007C107.363 90.7007 111.925 86.1335 111.925 80.4995C111.925 74.8656 107.363 70.2983 101.736 70.2983C96.1082 70.2983 91.5461 74.8656 91.5461 80.4995C91.5461 86.1335 96.1082 90.7007 101.736 90.7007Z" fill="#A0616A"/>
<path d="M115.163 186.53L120.249 186.529L122.669 173.323H115.162L115.163 186.53Z" fill="#A0616A"/>
<path d="M113.865 184.867L123.882 184.867H123.882C124.721 184.867 125.551 185.032 126.325 185.353C127.1 185.674 127.803 186.145 128.396 186.738C128.989 187.332 129.459 188.036 129.78 188.812C130.101 189.587 130.266 190.418 130.266 191.257V191.465L113.866 191.466L113.865 184.867Z" fill="#2F2E41"/>
<path d="M121.067 181.109C121.008 181.109 120.948 181.106 120.888 181.101L113.849 180.588C113.565 180.561 113.29 180.47 113.046 180.32C112.803 180.17 112.596 179.967 112.444 179.725C112.291 179.483 112.196 179.209 112.166 178.924C112.135 178.64 112.171 178.352 112.269 178.083L121.689 156.895C121.757 156.706 121.784 156.505 121.77 156.305C121.756 156.105 121.701 155.91 121.608 155.732C121.515 155.553 121.385 155.395 121.227 155.269C121.069 155.143 120.886 155.052 120.69 155.002C116.261 153.842 104.896 150.756 95.0574 147.144C90.8424 145.597 88.1877 143.361 87.1672 140.498C85.8217 136.724 87.8122 133.282 87.8975 133.137L87.9643 133.024L97.2219 133.867L107.258 134.721L129.251 146.528C131.094 147.526 132.494 149.182 133.172 151.167C133.85 153.152 133.757 155.319 132.91 157.238L122.77 180.001C122.624 180.331 122.385 180.611 122.082 180.808C121.78 181.004 121.427 181.109 121.067 181.109Z" fill="#2F2E41"/>
<path d="M104.878 96.4852L94.0917 92.7472C94.0917 92.7472 87.3203 97.9555 90.5732 110.876C92.2715 117.544 91.7768 124.582 89.1627 130.945C88.8479 131.733 88.4851 132.5 88.0762 133.243C88.0762 133.243 100.107 147.78 111.309 136.981L106.953 116.006C106.953 116.006 113.798 102.092 104.878 96.4852Z" fill="#2F2E41"/>
<path d="M103.001 91.0476C101.551 88.8745 100.406 85.8611 102.003 83.7934C103.579 81.7523 106.687 82.053 109.101 81.1498C112.463 79.8919 114.413 75.9376 113.805 72.3963C113.197 68.8549 110.357 65.9193 106.975 64.7181C103.592 63.517 99.7776 63.9076 96.465 65.2908C92.3871 66.9936 88.889 70.2875 87.4222 74.46C85.9553 78.6325 86.7395 83.6424 89.7825 86.8494C93.0449 90.2877 98.1651 91.2041 102.902 91.1485" fill="#2F2E41"/>
<path d="M93.5222 72.5099C91.6948 73.9993 88.9068 73.3378 86.9451 72.0307C84.9835 70.7236 83.3918 68.8624 81.2694 67.8375C77.5276 66.0308 73.0037 67.2319 69.362 69.2331C65.7203 71.2344 62.4922 73.9992 58.6455 75.5696C54.7988 77.1401 49.8902 77.2177 46.9775 74.2523C46.2607 76.3315 46.2021 78.5814 46.8097 80.6951C47.4173 82.8087 48.6615 84.6833 50.3725 86.0629C52.0835 87.4425 54.1781 88.2601 56.3703 88.4039C58.5626 88.5478 60.7458 88.011 62.6221 86.8668C66.8369 84.2965 69.165 78.9074 73.8923 77.4887C76.5083 76.7037 79.3172 77.336 81.9611 78.0208C84.605 78.7056 87.3618 79.4456 90.0299 78.8626C92.698 78.2796 95.1937 75.8792 94.8543 73.1663L93.5222 72.5099Z" fill="#2F2E41"/>
<path d="M126.692 168.631C125.614 161.615 125.614 154.475 126.692 147.459C126.761 147.041 126.975 146.661 127.297 146.387C127.619 146.113 128.028 145.962 128.45 145.961H144.992C145.26 145.96 145.525 146.021 145.766 146.138C146.007 146.255 146.219 146.425 146.384 146.637C146.553 146.851 146.671 147.101 146.729 147.367C146.787 147.634 146.784 147.91 146.719 148.175C145.172 154.664 145.172 161.426 146.719 167.914C146.784 168.179 146.787 168.456 146.729 168.722C146.671 168.989 146.553 169.239 146.384 169.453C146.219 169.664 146.007 169.835 145.766 169.952C145.525 170.069 145.26 170.129 144.992 170.128H128.45C128.028 170.128 127.619 169.977 127.297 169.702C126.975 169.428 126.761 169.048 126.692 168.631Z" fill="#FF5300"/>
<path d="M139.901 156.21H131.221C130.891 156.21 130.575 156.079 130.341 155.845C130.108 155.611 129.977 155.295 129.976 154.964V154.478C129.977 154.147 130.108 153.831 130.341 153.597C130.575 153.363 130.891 153.232 131.221 153.232H139.901C140.231 153.232 140.548 153.363 140.781 153.597C141.014 153.831 141.146 154.147 141.146 154.478V154.964C141.146 155.295 141.014 155.611 140.781 155.845C140.548 156.079 140.231 156.21 139.901 156.21Z" fill="white"/>
<path d="M139.901 161.338H131.221C130.891 161.337 130.575 161.206 130.341 160.972C130.108 160.739 129.977 160.422 129.976 160.092V159.605C129.977 159.274 130.108 158.958 130.341 158.724C130.575 158.49 130.891 158.359 131.221 158.359H139.901C140.231 158.359 140.548 158.49 140.781 158.724C141.014 158.958 141.146 159.274 141.146 159.605V160.092C141.146 160.422 141.014 160.739 140.781 160.972C140.548 161.206 140.231 161.337 139.901 161.338Z" fill="white"/>
<path d="M131.042 147.946C131.289 147.342 131.4 146.691 131.368 146.04C131.336 145.388 131.162 144.752 130.858 144.175C130.554 143.598 130.127 143.095 129.608 142.701C129.088 142.307 128.489 142.032 127.852 141.896L107.052 106.997L99.6892 113.307L122.45 145.627C122.291 146.713 122.536 147.821 123.138 148.739C123.74 149.657 124.658 150.321 125.717 150.607C126.776 150.893 127.903 150.78 128.885 150.29C129.866 149.799 130.634 148.965 131.042 147.946L131.042 147.946Z" fill="#A0616A"/>
<path d="M111.185 112.655L102.411 117.648C102.161 117.79 101.884 117.877 101.598 117.902C101.312 117.927 101.024 117.89 100.753 117.794C100.482 117.697 100.236 117.543 100.03 117.343C99.8241 117.143 99.6638 116.9 99.56 116.632L95.9232 107.239C95.2045 105.956 95.0233 104.441 95.4192 103.024C95.8151 101.608 96.7559 100.406 98.0353 99.6831C99.3147 98.96 100.828 98.7743 102.244 99.1666C103.66 99.559 104.863 100.497 105.589 101.776L111.771 109.683C111.948 109.909 112.074 110.171 112.141 110.451C112.208 110.73 112.214 111.021 112.158 111.303C112.102 111.585 111.987 111.852 111.819 112.085C111.651 112.318 111.435 112.513 111.185 112.655Z" fill="#2F2E41"/>
<path d="M204.547 124.913H36.1109C35.3957 124.913 34.7098 125.198 34.2041 125.704C33.6984 126.21 33.4143 126.897 33.4143 127.613C33.4143 128.329 33.6984 129.016 34.2041 129.522C34.7098 130.028 35.3957 130.313 36.1109 130.313H40.8819V189.083C40.8819 189.799 41.166 190.486 41.6717 190.992C42.1774 191.499 42.8633 191.783 43.5785 191.783C44.2937 191.783 44.9796 191.499 45.4853 190.992C45.9911 190.486 46.2752 189.799 46.2752 189.083V135.5L76.5069 190.358C76.8653 190.976 77.4541 191.427 78.1442 191.612C78.8343 191.796 79.5693 191.699 80.1878 191.341C80.8064 190.984 81.258 190.395 81.4436 189.704C81.6291 189.014 81.5335 188.278 81.1776 187.658L49.5748 130.313H193.967V130.348L162.384 187.658C162.027 188.278 161.93 189.015 162.115 189.706C162.3 190.398 162.752 190.988 163.371 191.346C163.99 191.704 164.726 191.801 165.417 191.615C166.108 191.43 166.697 190.978 167.055 190.358L193.967 141.523V189.083C193.967 189.799 194.252 190.486 194.757 190.992C195.263 191.499 195.949 191.783 196.664 191.783C197.379 191.783 198.065 191.499 198.571 190.992C199.077 190.486 199.361 189.799 199.361 189.083V131.736L200.145 130.313H204.547C205.262 130.313 205.948 130.028 206.453 129.522C206.959 129.016 207.243 128.329 207.243 127.613C207.243 126.897 206.959 126.21 206.453 125.704C205.948 125.198 205.262 124.913 204.547 124.913Z" fill="#3F3D56"/>
<path d="M134.849 123.252H102.075C101.273 123.252 100.623 123.903 100.623 124.706C100.623 125.509 101.273 126.159 102.075 126.159H134.849C135.651 126.159 136.301 125.509 136.301 124.706C136.301 123.903 135.651 123.252 134.849 123.252Z" fill="#CCCCCC"/>
<path d="M156.837 126.159H119.914C119.199 126.159 118.513 125.874 118.008 125.368C117.502 124.862 117.218 124.175 117.217 123.46V103.108C117.218 102.392 117.502 101.706 118.008 101.2C118.513 100.694 119.199 100.409 119.914 100.408H156.837C157.552 100.409 158.237 100.694 158.743 101.2C159.248 101.706 159.533 102.392 159.533 103.108V123.46C159.533 124.175 159.248 124.862 158.743 125.368C158.237 125.874 157.552 126.159 156.837 126.159Z" fill="#CCCCCC"/>
<path d="M138.375 115.776C139.75 115.776 140.865 114.66 140.865 113.284C140.865 111.908 139.75 110.792 138.375 110.792C137.001 110.792 135.886 111.908 135.886 113.284C135.886 114.66 137.001 115.776 138.375 115.776Z" fill="white"/>
<path d="M185.015 76.0162V3.12395C185.016 2.29571 185.345 1.50167 185.93 0.916022C186.515 0.330372 187.308 0.00094209 188.135 0H245.689C246.516 0.00094209 247.309 0.330372 247.894 0.916022C248.479 1.50167 248.808 2.29571 248.809 3.12395V76.0162C248.808 76.8444 248.479 77.6384 247.894 78.2241C247.309 78.8097 246.516 79.1392 245.689 79.1401H188.135C187.308 79.1392 186.515 78.8097 185.93 78.2241C185.345 77.6384 185.016 76.8444 185.015 76.0162ZM188.135 0.694213C187.492 0.694936 186.875 0.951158 186.42 1.40667C185.965 1.86217 185.709 2.47976 185.708 3.12395V76.0162C185.709 76.6603 185.965 77.2779 186.42 77.7334C186.875 78.1889 187.492 78.4452 188.135 78.4459H245.689C246.333 78.4452 246.949 78.1889 247.404 77.7334C247.859 77.2779 248.115 76.6603 248.116 76.0162V3.12395C248.115 2.47976 247.859 1.86217 247.404 1.40667C246.949 0.951158 246.333 0.694936 245.689 0.694213H188.135Z" fill="#E6E6E6"/>
<path d="M220.139 33.4755V18.5084C220.14 18.0943 220.304 17.6972 220.597 17.4044C220.889 17.1116 221.286 16.9469 221.7 16.9464H234.368C234.782 16.9469 235.179 17.1116 235.471 17.4044C235.764 17.6972 235.928 18.0943 235.929 18.5084V33.4755C235.928 33.8896 235.764 34.2866 235.471 34.5794C235.179 34.8723 234.782 35.037 234.368 35.0374H221.7C221.286 35.037 220.889 34.8723 220.597 34.5794C220.304 34.2866 220.14 33.8896 220.139 33.4755Z" fill="#FF5300"/>
<path d="M195.523 40.4176V25.4505C195.524 25.0364 195.688 24.6394 195.981 24.3466C196.273 24.0537 196.67 23.889 197.083 23.8885H209.752C210.166 23.889 210.562 24.0537 210.855 24.3466C211.147 24.6394 211.312 25.0364 211.312 25.4505V40.4176C211.312 40.8317 211.147 41.2288 210.855 41.5216C210.562 41.8144 210.166 41.9791 209.752 41.9796H197.083C196.67 41.9791 196.273 41.8144 195.981 41.5216C195.688 41.2288 195.524 40.8317 195.523 40.4176Z" fill="#CCCCCC"/>
<path d="M215.286 61.591V46.6239C215.286 46.2098 215.451 45.8128 215.743 45.52C216.036 45.2271 216.432 45.0624 216.846 45.062H229.515C229.928 45.0624 230.325 45.2271 230.617 45.52C230.91 45.8128 231.074 46.2098 231.075 46.6239V61.591C231.074 62.0051 230.91 62.4021 230.617 62.695C230.325 62.9878 229.928 63.1525 229.515 63.153H216.846C216.432 63.1525 216.036 62.9878 215.743 62.695C215.451 62.4022 215.286 62.0051 215.286 61.591Z" fill="#FF6584"/>
<path d="M311.903 7.5954C313.385 7.5954 314.586 6.39285 314.586 4.90944C314.586 3.42602 313.385 2.22348 311.903 2.22348C310.421 2.22348 309.22 3.42602 309.22 4.90944C309.22 6.39285 310.421 7.5954 311.903 7.5954Z" fill="#F2F2F2"/>
<path d="M311.903 18.3001C313.385 18.3001 314.586 17.0975 314.586 15.6141C314.586 14.1307 313.385 12.9282 311.903 12.9282C310.421 12.9282 309.22 14.1307 309.22 15.6141C309.22 17.0975 310.421 18.3001 311.903 18.3001Z" fill="#F2F2F2"/>
<path d="M311.903 29.0048C313.385 29.0048 314.586 27.8022 314.586 26.3188C314.586 24.8354 313.385 23.6328 311.903 23.6328C310.421 23.6328 309.22 24.8354 309.22 26.3188C309.22 27.8022 310.421 29.0048 311.903 29.0048Z" fill="#F2F2F2"/>
<path d="M311.903 39.7094C313.385 39.7094 314.586 38.5069 314.586 37.0235C314.586 35.5401 313.385 34.3375 311.903 34.3375C310.421 34.3375 309.22 35.5401 309.22 37.0235C309.22 38.5069 310.421 39.7094 311.903 39.7094Z" fill="#F2F2F2"/>
<path d="M300.701 7.5954C302.183 7.5954 303.384 6.39285 303.384 4.90944C303.384 3.42602 302.183 2.22348 300.701 2.22348C299.22 2.22348 298.019 3.42602 298.019 4.90944C298.019 6.39285 299.22 7.5954 300.701 7.5954Z" fill="#F2F2F2"/>
<path d="M300.701 18.3001C302.183 18.3001 303.384 17.0975 303.384 15.6141C303.384 14.1307 302.183 12.9282 300.701 12.9282C299.22 12.9282 298.019 14.1307 298.019 15.6141C298.019 17.0975 299.22 18.3001 300.701 18.3001Z" fill="#F2F2F2"/>
<path d="M300.701 29.0048C302.183 29.0048 303.384 27.8022 303.384 26.3188C303.384 24.8354 302.183 23.6328 300.701 23.6328C299.22 23.6328 298.019 24.8354 298.019 26.3188C298.019 27.8022 299.22 29.0048 300.701 29.0048Z" fill="#F2F2F2"/>
<path d="M300.701 39.7094C302.183 39.7094 303.384 38.5069 303.384 37.0235C303.384 35.5401 302.183 34.3375 300.701 34.3375C299.22 34.3375 298.019 35.5401 298.019 37.0235C298.019 38.5069 299.22 39.7094 300.701 39.7094Z" fill="#F2F2F2"/>
<path d="M289.5 7.5954C290.982 7.5954 292.183 6.39285 292.183 4.90944C292.183 3.42602 290.982 2.22348 289.5 2.22348C288.018 2.22348 286.817 3.42602 286.817 4.90944C286.817 6.39285 288.018 7.5954 289.5 7.5954Z" fill="#F2F2F2"/>
<path d="M289.5 18.3001C290.982 18.3001 292.183 17.0975 292.183 15.6141C292.183 14.1307 290.982 12.9282 289.5 12.9282C288.018 12.9282 286.817 14.1307 286.817 15.6141C286.817 17.0975 288.018 18.3001 289.5 18.3001Z" fill="#F2F2F2"/>
<path d="M289.5 29.0048C290.982 29.0048 292.183 27.8022 292.183 26.3188C292.183 24.8354 290.982 23.6328 289.5 23.6328C288.018 23.6328 286.817 24.8354 286.817 26.3188C286.817 27.8022 288.018 29.0048 289.5 29.0048Z" fill="#F2F2F2"/>
<path d="M289.5 39.7094C290.982 39.7094 292.183 38.5069 292.183 37.0235C292.183 35.5401 290.982 34.3375 289.5 34.3375C288.018 34.3375 286.817 35.5401 286.817 37.0235C286.817 38.5069 288.018 39.7094 289.5 39.7094Z" fill="#F2F2F2"/>
<path d="M278.299 7.5954C279.78 7.5954 280.981 6.39285 280.981 4.90944C280.981 3.42602 279.78 2.22348 278.299 2.22348C276.817 2.22348 275.616 3.42602 275.616 4.90944C275.616 6.39285 276.817 7.5954 278.299 7.5954Z" fill="#F2F2F2"/>
<path d="M278.299 18.3001C279.78 18.3001 280.981 17.0975 280.981 15.6141C280.981 14.1307 279.78 12.9282 278.299 12.9282C276.817 12.9282 275.616 14.1307 275.616 15.6141C275.616 17.0975 276.817 18.3001 278.299 18.3001Z" fill="#F2F2F2"/>
<path d="M278.299 29.0048C279.78 29.0048 280.981 27.8022 280.981 26.3188C280.981 24.8354 279.78 23.6328 278.299 23.6328C276.817 23.6328 275.616 24.8354 275.616 26.3188C275.616 27.8022 276.817 29.0048 278.299 29.0048Z" fill="#F2F2F2"/>
<path d="M278.299 39.7094C279.78 39.7094 280.981 38.5069 280.981 37.0235C280.981 35.5401 279.78 34.3375 278.299 34.3375C276.817 34.3375 275.616 35.5401 275.616 37.0235C275.616 38.5069 276.817 39.7094 278.299 39.7094Z" fill="#F2F2F2"/>
<path d="M267.097 7.5954C268.579 7.5954 269.78 6.39285 269.78 4.90944C269.78 3.42602 268.579 2.22348 267.097 2.22348C265.616 2.22348 264.415 3.42602 264.415 4.90944C264.415 6.39285 265.616 7.5954 267.097 7.5954Z" fill="#F2F2F2"/>
<path d="M267.097 18.3001C268.579 18.3001 269.78 17.0975 269.78 15.6141C269.78 14.1307 268.579 12.9282 267.097 12.9282C265.616 12.9282 264.415 14.1307 264.415 15.6141C264.415 17.0975 265.616 18.3001 267.097 18.3001Z" fill="#F2F2F2"/>
<path d="M267.097 29.0048C268.579 29.0048 269.78 27.8022 269.78 26.3188C269.78 24.8354 268.579 23.6328 267.097 23.6328C265.616 23.6328 264.415 24.8354 264.415 26.3188C264.415 27.8022 265.616 29.0048 267.097 29.0048Z" fill="#F2F2F2"/>
<path d="M267.097 39.7094C268.579 39.7094 269.78 38.5069 269.78 37.0235C269.78 35.5401 268.579 34.3375 267.097 34.3375C265.616 34.3375 264.415 35.5401 264.415 37.0235C264.415 38.5069 265.616 39.7094 267.097 39.7094Z" fill="#F2F2F2"/>
<path d="M255.896 7.5954C257.378 7.5954 258.579 6.39285 258.579 4.90944C258.579 3.42602 257.378 2.22348 255.896 2.22348C254.414 2.22348 253.213 3.42602 253.213 4.90944C253.213 6.39285 254.414 7.5954 255.896 7.5954Z" fill="#F2F2F2"/>
<path d="M255.896 18.3001C257.378 18.3001 258.579 17.0975 258.579 15.6141C258.579 14.1307 257.378 12.9282 255.896 12.9282C254.414 12.9282 253.213 14.1307 253.213 15.6141C253.213 17.0975 254.414 18.3001 255.896 18.3001Z" fill="#F2F2F2"/>
<path d="M255.896 29.0048C257.378 29.0048 258.579 27.8022 258.579 26.3188C258.579 24.8354 257.378 23.6328 255.896 23.6328C254.414 23.6328 253.213 24.8354 253.213 26.3188C253.213 27.8022 254.414 29.0048 255.896 29.0048Z" fill="#F2F2F2"/>
<path d="M255.896 39.7094C257.378 39.7094 258.579 38.5069 258.579 37.0235C258.579 35.5401 257.378 34.3375 255.896 34.3375C254.414 34.3375 253.213 35.5401 253.213 37.0235C253.213 38.5069 254.414 39.7094 255.896 39.7094Z" fill="#F2F2F2"/>
<path d="M266.705 100.202C266.485 99.5969 266.395 98.9522 266.441 98.3101C266.487 97.668 266.668 97.0428 266.972 96.4757C267.277 95.9085 267.697 95.4121 268.206 95.0189C268.716 94.6258 269.302 94.3448 269.927 94.1944C270.126 94.1477 270.327 94.1149 270.529 94.0962L280.612 76.4033L278.066 72.0246L284.403 67.1299L289.252 73.8717C289.83 74.6822 290.132 75.6577 290.112 76.6534C290.093 77.6492 289.753 78.6121 289.144 79.3993L275.302 97.1401C275.352 97.281 275.395 97.4245 275.431 97.5698C275.581 98.1959 275.597 98.8467 275.478 99.4795C275.36 100.112 275.109 100.713 274.742 101.242C274.376 101.771 273.902 102.216 273.351 102.549C272.8 102.882 272.186 103.094 271.548 103.173C271.362 103.196 271.176 103.208 270.989 103.208C270.054 103.205 269.142 102.915 268.376 102.378C267.61 101.84 267.027 101.081 266.705 100.202Z" fill="#FFB8B8"/>
<path d="M247.034 187.272L241.948 187.271L239.528 167.631L247.035 167.631L247.034 187.272Z" fill="#FFB8B8"/>
<path d="M238.315 185.817H248.124V192H232.139C232.139 191.188 232.298 190.384 232.609 189.633C232.919 188.883 233.374 188.202 233.948 187.628C234.521 187.053 235.202 186.598 235.951 186.287C236.701 185.976 237.504 185.817 238.315 185.817Z" fill="#2F2E41"/>
<path d="M288.935 187.272L283.849 187.271L281.43 167.631L288.936 167.631L288.935 187.272Z" fill="#FFB8B8"/>
<path d="M280.216 185.817H290.025V192H274.04C274.04 191.188 274.2 190.384 274.51 189.633C274.821 188.883 275.275 188.202 275.849 187.628C276.422 187.053 277.103 186.598 277.853 186.287C278.602 185.976 279.405 185.817 280.216 185.817Z" fill="#2F2E41"/>
<path d="M285.814 68.0863L274.395 72.4305L271.607 64.6775C271.237 63.648 271.242 62.5207 271.622 61.4947C272.001 60.4687 272.731 59.6101 273.682 59.0706C274.644 58.5249 275.769 58.3416 276.854 58.5537C277.939 58.7658 278.913 59.3593 279.599 60.2271L285.814 68.0863Z" fill="#FF5300"/>
<path d="M247.473 171.365L237.896 169.178C237.387 169.061 236.941 168.755 236.647 168.322C236.354 167.889 236.235 167.361 236.315 166.844C240.157 142.459 243.855 128.179 253.382 110.045C253.515 109.707 255.003 102.844 255.974 98.2971C255.963 97.7961 256.134 97.3082 256.456 96.9243C256.777 96.5404 257.228 96.2867 257.722 96.2104L275.58 93.459C275.849 93.3655 276.134 93.3226 276.419 93.3327L276.597 93.3665L276.595 93.5424C276.593 93.7241 276.412 93.7519 276.344 93.7624L276.107 93.7989C276.377 93.9252 276.626 94.0944 276.843 94.3C284.667 103.721 288.736 134.605 293.903 168.723C293.932 169 293.898 169.279 293.805 169.542C293.711 169.804 293.56 170.042 293.363 170.238C293.176 170.442 292.949 170.606 292.697 170.721C292.445 170.835 292.172 170.897 291.895 170.902L280.486 171.181C279.984 171.192 279.496 171.021 279.112 170.698C278.728 170.376 278.473 169.925 278.397 169.429L270.712 124.967C270.659 124.62 270.496 124.298 270.248 124.05C270.001 123.801 269.68 123.638 269.333 123.585C268.986 123.531 268.631 123.59 268.32 123.752C268.009 123.914 267.757 124.172 267.602 124.487C261.403 137.128 255.621 148.06 249.926 169.87C249.814 170.312 249.557 170.704 249.197 170.984C248.837 171.264 248.394 171.417 247.938 171.417C247.782 171.417 247.626 171.4 247.473 171.365Z" fill="#2F2E41"/>
<path d="M256.769 98.8049C256.529 98.6347 256.327 98.4152 256.178 98.1611C256.029 97.907 255.936 97.624 255.905 97.3309C254.442 83.6622 255.461 72.9654 259.019 64.6292C259.645 63.1914 260.589 61.9145 261.78 60.8944C262.97 59.8744 264.376 59.1377 265.892 58.7398L275.122 58.2733L275.17 58.2965C277.253 59.3179 278.952 60.9841 280.014 63.0481C281.077 65.1121 281.447 67.464 281.069 69.755C278.1 77.5897 275.614 85.7468 277.51 92.3272C277.59 92.6023 277.613 92.8906 277.578 93.1749C277.544 93.4592 277.452 93.7336 277.309 93.9816C277.171 94.2214 276.984 94.4302 276.762 94.5951C276.54 94.7601 276.286 94.8777 276.017 94.9407L258.435 99.1278C258.151 99.1956 257.855 99.2019 257.567 99.1462C257.28 99.0905 257.008 98.9742 256.769 98.8049Z" fill="#FF5300"/>
<path d="M252.796 79.1894L235.092 65.2066C234.951 65.2562 234.807 65.2986 234.662 65.3335C234.037 65.4799 233.388 65.4929 232.758 65.3719C232.128 65.2509 231.53 64.9985 231.004 64.631C230.474 64.2633 230.028 63.7866 229.697 63.2326C229.366 62.6787 229.157 62.0604 229.084 61.419C228.965 60.3938 229.196 59.3584 229.739 58.481C230.282 57.6035 231.105 56.9355 232.075 56.5852C232.68 56.3679 233.325 56.281 233.966 56.3303C234.607 56.3796 235.23 56.5639 235.795 56.8712C236.36 57.1786 236.854 57.6019 237.245 58.1136C237.635 58.6253 237.913 59.2137 238.06 59.8404C238.106 60.039 238.137 60.2405 238.155 60.4436L255.779 70.6224L260.165 68.0945L265.023 74.4625L258.214 79.3217C257.417 79.8858 256.459 80.1776 255.483 80.1538C254.507 80.13 253.565 79.7918 252.796 79.1894H252.796Z" fill="#FFB8B8"/>
<path d="M267.184 76.4456L257.082 69.5687L261.829 62.8373C262.46 61.9435 263.385 61.3015 264.443 61.0249C265.5 60.7482 266.621 60.8547 267.608 61.3255C268.606 61.8017 269.401 62.6195 269.849 63.6312C270.298 64.643 270.37 65.7819 270.053 66.8423L267.184 76.4456Z" fill="#FF5300"/>
<path d="M272.042 54.8218C277.669 54.8218 282.231 50.2545 282.231 44.6206C282.231 38.9866 277.669 34.4194 272.042 34.4194C266.414 34.4194 261.852 38.9866 261.852 44.6206C261.852 50.2545 266.414 54.8218 272.042 54.8218Z" fill="#FFB8B8"/>
<path d="M268.306 43.1012C265.687 44.8957 262.248 46.7403 259.573 44.8293C257.817 43.5745 257.264 41.251 257.976 39.2119C259.257 35.545 262.776 33.9307 266.141 32.6933C270.515 31.0847 275.278 29.8049 279.794 30.957C284.31 32.109 288.301 36.4863 287.486 41.08C286.831 44.7741 283.35 47.8479 283.844 51.5672C284.341 55.3103 288.546 57.2805 292.258 57.9495C295.97 58.6185 300.124 58.8335 302.792 61.5028C306.195 64.9081 305.345 70.9947 302.143 74.59C298.941 78.1853 294.108 79.8151 289.426 80.923C283.222 82.3909 276.511 83.1623 270.619 80.7262C264.727 78.2901 260.141 71.7323 261.848 65.583C262.569 62.9855 264.268 60.7903 265.909 58.6532C267.551 56.5161 269.213 54.2814 269.839 51.6594C270.361 49.4744 269.975 46.9375 268.527 45.2985C268.264 45.0116 268.098 44.6486 268.054 44.2616C268.01 43.8746 268.089 43.4834 268.281 43.1444L268.306 43.1012Z" fill="#2F2E41"/>
</g>
<defs>
<clipPath id="clip0_147_56">
<rect width="372" height="192" fill="white" transform="translate(-12)"/>
</clipPath>
</defs>
</svg>
