<svg width="105" height="105" viewBox="0 0 105 105" fill="none" xmlns="http://www.w3.org/2000/svg">
<g filter="url(#filter0_d_152_608)">
<circle cx="48.5" cy="47.5" r="37.5" fill="#FF5300"/>
</g>
<path d="M53.5749 37.5C55.04 37.7858 56.3865 38.5024 57.442 39.5579C58.4975 40.6134 59.2141 41.9599 59.4999 43.425L53.5749 37.5ZM53.5749 31.5C56.6188 31.8382 59.4573 33.2013 61.6243 35.3655C63.7912 37.5298 65.1579 40.3665 65.4999 43.41L53.5749 31.5ZM63.9999 55.38V59.88C64.0016 60.2978 63.916 60.7113 63.7487 61.094C63.5813 61.4768 63.3358 61.8204 63.028 62.1028C62.7202 62.3852 62.3568 62.6002 61.961 62.7341C61.5653 62.8679 61.146 62.9176 60.7299 62.88C56.1142 62.3785 51.6804 60.8012 47.7849 58.275C44.1606 55.972 41.0879 52.8993 38.7849 49.275C36.2499 45.3618 34.6723 40.9065 34.1799 36.27C34.1424 35.8552 34.1917 35.4371 34.3247 35.0424C34.4576 34.6477 34.6713 34.285 34.952 33.9774C35.2328 33.6698 35.5746 33.4241 35.9556 33.2558C36.3366 33.0875 36.7484 33.0004 37.1649 33H41.6649C42.3929 32.9928 43.0986 33.2506 43.6505 33.7253C44.2025 34.2 44.563 34.8592 44.6649 35.58C44.8548 37.0201 45.2071 38.4341 45.7149 39.795C45.9167 40.3319 45.9604 40.9154 45.8408 41.4763C45.7211 42.0373 45.4432 42.5522 45.0399 42.96L43.1349 44.865C45.2702 48.6203 48.3796 51.7297 52.1349 53.865L54.0399 51.96C54.4477 51.5567 54.9626 51.2788 55.5236 51.1591C56.0845 51.0395 56.668 51.0832 57.2049 51.285C58.5658 51.7928 59.9798 52.1451 61.4199 52.335C62.1485 52.4378 62.814 52.8048 63.2897 53.3662C63.7654 53.9277 64.0182 54.6444 63.9999 55.38Z" stroke="white" stroke-width="2" stroke-linecap="round" stroke-linejoin="round"/>
<defs>
<filter id="filter0_d_152_608" x="0" y="0" width="105" height="105" filterUnits="userSpaceOnUse" color-interpolation-filters="sRGB">
<feFlood flood-opacity="0" result="BackgroundImageFix"/>
<feColorMatrix in="SourceAlpha" type="matrix" values="0 0 0 0 0 0 0 0 0 0 0 0 0 0 0 0 0 0 127 0" result="hardAlpha"/>
<feOffset dx="4" dy="5"/>
<feGaussianBlur stdDeviation="7.5"/>
<feColorMatrix type="matrix" values="0 0 0 0 1 0 0 0 0 0.326087 0 0 0 0 0 0 0 0 0.4 0"/>
<feBlend mode="normal" in2="BackgroundImageFix" result="effect1_dropShadow_152_608"/>
<feBlend mode="normal" in="SourceGraphic" in2="effect1_dropShadow_152_608" result="shape"/>
</filter>
</defs>
</svg>
