<svg width="127" height="30" viewBox="0 0 127 30" fill="none" xmlns="http://www.w3.org/2000/svg">
<path d="M8.70313 2.375C11.9323 2.375 14.4323 3.27083 16.2031 5.0625C17.974 6.85417 18.8594 9.39583 18.8594 12.6875C18.8594 15.9792 17.974 18.5208 16.2031 20.3125C14.4323 22.1042 11.9323 23 8.70313 23H0.734375V2.375H8.70313ZM8.48438 19.5625C10.4427 19.5625 11.9115 18.9792 12.8906 17.8125C13.8906 16.625 14.3906 14.9167 14.3906 12.6875C14.3906 10.4583 13.8906 8.76042 12.8906 7.59375C11.9115 6.40625 10.4427 5.8125 8.48438 5.8125H5.04688V19.5625H8.48438ZM24.8225 5.125C23.0517 5.125 22.1663 4.36458 22.1663 2.84375C22.1663 1.30208 23.0517 0.531249 24.8225 0.531249C26.5933 0.531249 27.4788 1.30208 27.4788 2.84375C27.4788 4.36458 26.5933 5.125 24.8225 5.125ZM26.9475 7.375V23H22.6663V7.375H26.9475ZM40.7671 20.0625C42.4546 20.0625 43.7567 20.4271 44.6733 21.1562C45.59 21.8854 46.0483 22.9063 46.0483 24.2188C46.0483 25.4271 45.7046 26.4375 45.0171 27.25C44.3296 28.0625 43.3608 28.6771 42.1108 29.0938C40.8817 29.5104 39.4546 29.7188 37.8296 29.7188C35.1421 29.7188 33.1733 29.3438 31.9233 28.5938C30.6942 27.8438 30.0796 26.8646 30.0796 25.6563C30.0796 24.9479 30.2983 24.3229 30.7358 23.7813C31.1942 23.2604 31.9233 22.8958 32.9233 22.6875C31.5275 22.1667 30.8296 21.1875 30.8296 19.75C30.8296 19.0417 31.0379 18.4167 31.4546 17.875C31.8921 17.3333 32.4858 16.9271 33.2358 16.6562C31.59 15.7396 30.7671 14.3125 30.7671 12.375C30.7671 10.7292 31.4025 9.4375 32.6733 8.5C33.9442 7.54167 35.6838 7.0625 37.8921 7.0625C39.1421 7.0625 40.2671 7.22917 41.2671 7.5625C41.4129 6.47917 41.8504 5.5625 42.5796 4.8125C43.3088 4.04167 44.2983 3.65625 45.5483 3.65625C45.59 3.65625 45.6421 3.65625 45.7046 3.65625C45.7671 3.65625 45.8296 3.65625 45.8921 3.65625L46.3921 6.71875C46.2254 6.69792 46.0379 6.6875 45.8296 6.6875C45.0379 6.6875 44.4025 6.84375 43.9233 7.15625C43.4442 7.44792 43.1421 7.875 43.0171 8.4375C44.3504 9.375 45.0171 10.6875 45.0171 12.375C45.0171 14 44.3713 15.2917 43.0796 16.25C41.8088 17.1875 40.0796 17.6562 37.8921 17.6562C36.9338 17.6562 36.0588 17.5729 35.2671 17.4062C34.7879 17.5312 34.4442 17.7187 34.2358 17.9687C34.0483 18.1979 33.9546 18.4583 33.9546 18.75C33.9546 19.625 34.6213 20.0625 35.9546 20.0625H40.7671ZM37.8921 9.75C37.0588 9.75 36.3713 9.97917 35.8296 10.4375C35.2879 10.8958 35.0171 11.5312 35.0171 12.3437C35.0171 13.1562 35.2879 13.8021 35.8296 14.2812C36.3713 14.7396 37.0588 14.9688 37.8921 14.9688C38.7046 14.9688 39.3817 14.7396 39.9233 14.2812C40.465 13.8021 40.7358 13.1562 40.7358 12.3437C40.7358 11.5312 40.465 10.8958 39.9233 10.4375C39.3817 9.97917 38.7046 9.75 37.8921 9.75ZM37.8608 26.7813C39.465 26.7813 40.6525 26.5833 41.4233 26.1875C42.215 25.8125 42.6108 25.3542 42.6108 24.8125C42.6108 24.4167 42.4546 24.0938 42.1421 23.8438C41.8296 23.6146 41.2671 23.5 40.4546 23.5H35.1733C34.6733 23.5 34.2567 23.625 33.9233 23.875C33.6108 24.1458 33.4546 24.4896 33.4546 24.9063C33.4546 25.4896 33.84 25.9479 34.6108 26.2813C35.4025 26.6146 36.4858 26.7813 37.8608 26.7813ZM50.793 5.125C49.0221 5.125 48.1367 4.36458 48.1367 2.84375C48.1367 1.30208 49.0221 0.531249 50.793 0.531249C52.5638 0.531249 53.4492 1.30208 53.4492 2.84375C53.4492 4.36458 52.5638 5.125 50.793 5.125ZM52.918 7.375V23H48.6367V7.375H52.918ZM64.7063 23.3125C62.248 23.3125 60.2792 22.6042 58.8 21.1875C57.3209 19.75 56.5813 17.75 56.5813 15.1875C56.5813 13.4792 56.9146 12.0208 57.5813 10.8125C58.248 9.60417 59.175 8.67708 60.3625 8.03125C61.5709 7.38542 62.9459 7.0625 64.4875 7.0625C66.0709 7.0625 67.4146 7.38542 68.5188 8.03125C69.623 8.65625 70.4667 9.52083 71.05 10.625C71.6334 11.7083 71.925 12.9479 71.925 14.3437C71.925 14.7604 71.9146 15.1562 71.8938 15.5312C71.873 15.9062 71.8417 16.2396 71.8 16.5312H60.7688C60.9355 17.7396 61.3521 18.6458 62.0188 19.25C62.7063 19.8333 63.5917 20.125 64.675 20.125C65.5917 20.125 66.3313 19.9479 66.8938 19.5937C67.4563 19.2396 67.8938 18.75 68.2063 18.125L71.6125 19.4375C71.1126 20.6667 70.2375 21.625 68.9875 22.3125C67.7375 22.9792 66.3105 23.3125 64.7063 23.3125ZM64.4563 10.2187C62.4355 10.2187 61.2167 11.3333 60.8 13.5625H67.8313C67.7063 12.4792 67.3521 11.6562 66.7688 11.0937C66.2063 10.5104 65.4355 10.2187 64.4563 10.2187Z" fill="#FF5300"/>
<path d="M75.5532 23V7.375H79.397L79.5532 10.3125C80.0324 9.22917 80.7303 8.41667 81.647 7.875C82.5845 7.33333 83.6574 7.0625 84.8657 7.0625C86.4907 7.0625 87.8345 7.54167 88.897 8.5C89.9595 9.4375 90.4907 10.8542 90.4907 12.75V23H86.2095V13.9687C86.2095 12.6354 85.9386 11.7187 85.397 11.2187C84.8761 10.6979 84.2095 10.4375 83.397 10.4375C82.8136 10.4375 82.2407 10.5833 81.6782 10.875C81.1366 11.1458 80.6886 11.5937 80.3345 12.2187C80.0011 12.8437 79.8345 13.6771 79.8345 14.7187V23H75.5532ZM101.995 7.0625C104.078 7.0625 105.693 7.51042 106.839 8.40625C108.006 9.30208 108.776 10.3854 109.151 11.6562L105.151 13.0937C104.735 11.1979 103.703 10.25 102.058 10.25C100.87 10.25 99.943 10.6667 99.2764 11.5C98.6305 12.3333 98.3076 13.5729 98.3076 15.2187C98.3076 16.8854 98.641 18.125 99.3076 18.9375C99.9951 19.7292 100.922 20.125 102.089 20.125C103.901 20.125 104.985 19.1979 105.339 17.3437L109.214 18.5937C108.86 19.9896 108.068 21.125 106.839 22C105.631 22.875 104.058 23.3125 102.12 23.3125C100.495 23.3125 99.068 22.9896 97.8389 22.3437C96.6305 21.6979 95.693 20.7708 95.0264 19.5625C94.3597 18.3542 94.0264 16.8958 94.0264 15.1875C94.0264 13.4792 94.3597 12.0208 95.0264 10.8125C95.7139 9.60417 96.6514 8.67708 97.8389 8.03125C99.0472 7.38542 100.433 7.0625 101.995 7.0625ZM126.831 7.375L120.519 23.9688C120.019 25.3854 119.456 26.5104 118.831 27.3438C118.227 28.1979 117.519 28.8021 116.706 29.1563C115.915 29.5313 114.967 29.7188 113.863 29.7188C113.05 29.7188 112.3 29.625 111.613 29.4375C110.946 29.25 110.363 28.9896 109.863 28.6563L110.769 25.5625C111.498 26.1458 112.415 26.4375 113.519 26.4375C114.123 26.4375 114.633 26.3125 115.05 26.0625C115.467 25.8125 115.821 25.3125 116.113 24.5625L116.644 23.2188L114.925 19.1562L110.144 7.375H114.894L117.863 16.75L118.675 19.875L119.644 16.5625L122.488 7.375H126.831Z" fill="white"/>
</svg>
