<?xml version="1.0" standalone="no"?>
<!DOCTYPE svg PUBLIC "-//W3C//DTD SVG 20010904//EN"
 "http://www.w3.org/TR/2001/REC-SVG-20010904/DTD/svg10.dtd">
<svg version="1.0" xmlns="http://www.w3.org/2000/svg"
 width="920.000000pt" height="720.000000pt" viewBox="0 0 920.000000 720.000000"
 preserveAspectRatio="xMidYMid meet">

<g transform="translate(0.000000,720.000000) scale(0.100000,-0.100000)"
fill="#000000" stroke="none">
<path d="M4420 7190 c-889 -65 -1663 -667 -1933 -1505 -72 -223 -100 -415 -99
-680 0 -210 14 -323 61 -506 56 -218 114 -347 316 -709 167 -299 215 -378 502
-818 390 -599 548 -865 732 -1232 177 -351 300 -645 412 -983 66 -197 149
-499 175 -635 9 -48 20 -91 24 -95 4 -5 10 13 14 40 22 163 158 640 263 921
230 619 481 1086 1058 1972 367 564 425 662 599 1010 171 343 222 488 261 745
20 132 23 436 6 570 -45 346 -153 635 -342 920 -186 280 -406 494 -680 661
-395 241 -890 358 -1369 324z m428 -1395 c248 -84 433 -277 508 -530 35 -118
37 -288 6 -406 -73 -272 -283 -483 -559 -561 -110 -31 -286 -31 -396 0 -281
80 -496 300 -563 579 -27 110 -22 277 11 388 79 269 287 473 556 545 61 16 99
19 214 17 122 -3 151 -7 223 -32z"/>
</g>
</svg>
