<svg width="24" height="24" viewBox="0 0 24 24" fill="none" xmlns="http://www.w3.org/2000/svg">
<path d="M13.3099 20.4002C11.9876 20.6067 10.6352 20.4981 9.36284 20.0832C8.09044 19.6683 6.93401 18.9588 5.98766 18.0124C5.04132 17.0661 4.33181 15.9096 3.91689 14.6372C3.50197 13.3648 3.39336 12.0125 3.59991 10.6902C3.07865 9.69867 2.88817 8.56644 3.05632 7.45897C3.22448 6.3515 3.74244 5.32684 4.53452 4.53477C5.3266 3.74269 6.35125 3.22472 7.45873 3.05657C8.5662 2.88841 9.69842 3.07889 10.6899 3.60016C12.0122 3.39361 13.3646 3.50221 14.637 3.91713C15.9094 4.33205 17.0658 5.04156 18.0122 5.98791C18.9585 6.93425 19.668 8.09069 20.0829 9.36308C20.4979 10.6355 20.6065 11.9879 20.3999 13.3102C20.9212 14.3016 21.1117 15.4339 20.9435 16.5413C20.7754 17.6488 20.2574 18.6735 19.4653 19.4655C18.6732 20.2576 17.6486 20.7756 16.5411 20.9437C15.4336 21.1119 14.3014 20.9214 13.3099 20.4002V20.4002ZM12.0519 17.1562H12.0119C14.8839 17.1562 16.3149 15.7702 16.3149 13.9132C16.3149 12.7152 15.7639 11.4422 13.5889 10.9552L11.6059 10.5152C10.8509 10.3432 9.98391 10.1152 9.98391 9.40016C9.98391 8.68516 10.6039 8.18716 11.7079 8.18716C13.9379 8.18716 13.7349 9.71516 14.8389 9.71516C15.4149 9.71516 15.9319 9.37316 15.9319 8.78516C15.9319 7.41516 13.7349 6.38516 11.8759 6.38516C9.85491 6.38516 7.70291 7.24416 7.70291 9.52916C7.70291 10.6272 8.09691 11.7992 10.2629 12.3422L12.9519 13.0132C13.7679 13.2152 13.9699 13.6722 13.9699 14.0852C13.9699 14.7722 13.2859 15.4432 12.0519 15.4432C9.63491 15.4432 9.97391 13.5862 8.67791 13.5862C8.09791 13.5862 7.67491 13.9842 7.67491 14.5572C7.67491 15.6712 9.02691 17.1552 12.0519 17.1552V17.1562Z" fill="#FF5300"/>
</svg>
