<svg width="129" height="39" viewBox="0 0 129 39" fill="none" xmlns="http://www.w3.org/2000/svg">
<path d="M10.7031 9.375C13.9323 9.375 16.4323 10.2708 18.2031 12.0625C19.974 13.8542 20.8594 16.3958 20.8594 19.6875C20.8594 22.9792 19.974 25.5208 18.2031 27.3125C16.4323 29.1042 13.9323 30 10.7031 30H2.73438V9.375H10.7031ZM10.4844 26.5625C12.4427 26.5625 13.9115 25.9792 14.8906 24.8125C15.8906 23.625 16.3906 21.9167 16.3906 19.6875C16.3906 17.4583 15.8906 15.7604 14.8906 14.5937C13.9115 13.4062 12.4427 12.8125 10.4844 12.8125H7.04688V26.5625H10.4844ZM26.8225 12.125C25.0517 12.125 24.1663 11.3646 24.1663 9.84375C24.1663 8.30208 25.0517 7.53125 26.8225 7.53125C28.5933 7.53125 29.4788 8.30208 29.4788 9.84375C29.4788 11.3646 28.5933 12.125 26.8225 12.125ZM28.9475 14.375V30H24.6663V14.375H28.9475ZM42.7671 27.0625C44.4546 27.0625 45.7567 27.4271 46.6733 28.1562C47.59 28.8854 48.0483 29.9063 48.0483 31.2188C48.0483 32.4271 47.7046 33.4375 47.0171 34.25C46.3296 35.0625 45.3608 35.6771 44.1108 36.0938C42.8817 36.5104 41.4546 36.7188 39.8296 36.7188C37.1421 36.7188 35.1733 36.3438 33.9233 35.5938C32.6942 34.8438 32.0796 33.8646 32.0796 32.6563C32.0796 31.9479 32.2983 31.3229 32.7358 30.7813C33.1942 30.2604 33.9233 29.8958 34.9233 29.6875C33.5275 29.1667 32.8296 28.1875 32.8296 26.75C32.8296 26.0417 33.0379 25.4167 33.4546 24.875C33.8921 24.3333 34.4858 23.9271 35.2358 23.6562C33.59 22.7396 32.7671 21.3125 32.7671 19.375C32.7671 17.7292 33.4025 16.4375 34.6733 15.5C35.9442 14.5417 37.6838 14.0625 39.8921 14.0625C41.1421 14.0625 42.2671 14.2292 43.2671 14.5625C43.4129 13.4792 43.8504 12.5625 44.5796 11.8125C45.3088 11.0417 46.2983 10.6562 47.5483 10.6562C47.59 10.6562 47.6421 10.6562 47.7046 10.6562C47.7671 10.6562 47.8296 10.6562 47.8921 10.6562L48.3921 13.7187C48.2254 13.6979 48.0379 13.6875 47.8296 13.6875C47.0379 13.6875 46.4025 13.8437 45.9233 14.1562C45.4442 14.4479 45.1421 14.875 45.0171 15.4375C46.3504 16.375 47.0171 17.6875 47.0171 19.375C47.0171 21 46.3713 22.2917 45.0796 23.25C43.8088 24.1875 42.0796 24.6562 39.8921 24.6562C38.9338 24.6562 38.0588 24.5729 37.2671 24.4062C36.7879 24.5312 36.4442 24.7187 36.2358 24.9687C36.0483 25.1979 35.9546 25.4583 35.9546 25.75C35.9546 26.625 36.6213 27.0625 37.9546 27.0625H42.7671ZM39.8921 16.75C39.0588 16.75 38.3713 16.9792 37.8296 17.4375C37.2879 17.8958 37.0171 18.5312 37.0171 19.3437C37.0171 20.1562 37.2879 20.8021 37.8296 21.2812C38.3713 21.7396 39.0588 21.9688 39.8921 21.9688C40.7046 21.9688 41.3817 21.7396 41.9233 21.2812C42.465 20.8021 42.7358 20.1562 42.7358 19.3437C42.7358 18.5312 42.465 17.8958 41.9233 17.4375C41.3817 16.9792 40.7046 16.75 39.8921 16.75ZM39.8608 33.7813C41.465 33.7813 42.6525 33.5833 43.4233 33.1875C44.215 32.8125 44.6108 32.3542 44.6108 31.8125C44.6108 31.4167 44.4546 31.0938 44.1421 30.8438C43.8296 30.6146 43.2671 30.5 42.4546 30.5H37.1733C36.6733 30.5 36.2567 30.625 35.9233 30.875C35.6108 31.1458 35.4546 31.4896 35.4546 31.9063C35.4546 32.4896 35.84 32.9479 36.6108 33.2813C37.4025 33.6146 38.4858 33.7813 39.8608 33.7813ZM52.793 12.125C51.0221 12.125 50.1367 11.3646 50.1367 9.84375C50.1367 8.30208 51.0221 7.53125 52.793 7.53125C54.5638 7.53125 55.4492 8.30208 55.4492 9.84375C55.4492 11.3646 54.5638 12.125 52.793 12.125ZM54.918 14.375V30H50.6367V14.375H54.918ZM66.7063 30.3125C64.248 30.3125 62.2792 29.6042 60.8 28.1875C59.3209 26.75 58.5813 24.75 58.5813 22.1875C58.5813 20.4792 58.9146 19.0208 59.5813 17.8125C60.248 16.6042 61.175 15.6771 62.3625 15.0312C63.5709 14.3854 64.9459 14.0625 66.4875 14.0625C68.0709 14.0625 69.4146 14.3854 70.5188 15.0312C71.623 15.6562 72.4667 16.5208 73.05 17.625C73.6334 18.7083 73.925 19.9479 73.925 21.3437C73.925 21.7604 73.9146 22.1562 73.8938 22.5312C73.873 22.9062 73.8417 23.2396 73.8 23.5312H62.7688C62.9355 24.7396 63.3521 25.6458 64.0188 26.25C64.7063 26.8333 65.5917 27.125 66.675 27.125C67.5917 27.125 68.3313 26.9479 68.8938 26.5937C69.4563 26.2396 69.8938 25.75 70.2063 25.125L73.6125 26.4375C73.1126 27.6667 72.2375 28.625 70.9875 29.3125C69.7375 29.9792 68.3105 30.3125 66.7063 30.3125ZM66.4563 17.2187C64.4355 17.2187 63.2167 18.3333 62.8 20.5625H69.8313C69.7063 19.4792 69.3521 18.6562 68.7688 18.0937C68.2063 17.5104 67.4355 17.2187 66.4563 17.2187Z" fill="#FF5300"/>
<path d="M77.5532 30V14.375H81.397L81.5532 17.3125C82.0324 16.2292 82.7303 15.4167 83.647 14.875C84.5845 14.3333 85.6574 14.0625 86.8657 14.0625C88.4907 14.0625 89.8345 14.5417 90.897 15.5C91.9595 16.4375 92.4907 17.8542 92.4907 19.75V30H88.2095V20.9687C88.2095 19.6354 87.9386 18.7187 87.397 18.2187C86.8761 17.6979 86.2095 17.4375 85.397 17.4375C84.8136 17.4375 84.2407 17.5833 83.6782 17.875C83.1366 18.1458 82.6886 18.5937 82.3345 19.2187C82.0011 19.8437 81.8345 20.6771 81.8345 21.7187V30H77.5532ZM103.995 14.0625C106.078 14.0625 107.693 14.5104 108.839 15.4062C110.006 16.3021 110.776 17.3854 111.151 18.6562L107.151 20.0937C106.735 18.1979 105.703 17.25 104.058 17.25C102.87 17.25 101.943 17.6667 101.276 18.5C100.631 19.3333 100.308 20.5729 100.308 22.2187C100.308 23.8854 100.641 25.125 101.308 25.9375C101.995 26.7292 102.922 27.125 104.089 27.125C105.901 27.125 106.985 26.1979 107.339 24.3437L111.214 25.5937C110.86 26.9896 110.068 28.125 108.839 29C107.631 29.875 106.058 30.3125 104.12 30.3125C102.495 30.3125 101.068 29.9896 99.8389 29.3437C98.6305 28.6979 97.693 27.7708 97.0264 26.5625C96.3597 25.3542 96.0264 23.8958 96.0264 22.1875C96.0264 20.4792 96.3597 19.0208 97.0264 17.8125C97.7139 16.6042 98.6514 15.6771 99.8389 15.0312C101.047 14.3854 102.433 14.0625 103.995 14.0625ZM128.831 14.375L122.519 30.9688C122.019 32.3854 121.456 33.5104 120.831 34.3438C120.227 35.1979 119.519 35.8021 118.706 36.1563C117.915 36.5313 116.967 36.7188 115.863 36.7188C115.05 36.7188 114.3 36.625 113.613 36.4375C112.946 36.25 112.363 35.9896 111.863 35.6563L112.769 32.5625C113.498 33.1458 114.415 33.4375 115.519 33.4375C116.123 33.4375 116.633 33.3125 117.05 33.0625C117.467 32.8125 117.821 32.3125 118.113 31.5625L118.644 30.2188L116.925 26.1562L112.144 14.375H116.894L119.863 23.75L120.675 26.875L121.644 23.5625L124.488 14.375H128.831Z" fill="white"/>
</svg>
