<svg width="60" height="60" viewBox="0 0 60 60" fill="none" xmlns="http://www.w3.org/2000/svg">
<g filter="url(#filter0_d_162_8165)">
<rect x="10" y="9" width="40" height="40" fill="white"/>
</g>
<path d="M30 19C32.717 19 33.056 19.01 34.122 19.06C35.187 19.11 35.912 19.277 36.55 19.525C37.21 19.779 37.766 20.123 38.322 20.678C38.8305 21.1779 39.224 21.7826 39.475 22.45C39.722 23.087 39.89 23.813 39.94 24.878C39.987 25.944 40 26.283 40 29C40 31.717 39.99 32.056 39.94 33.122C39.89 34.187 39.722 34.912 39.475 35.55C39.2247 36.2178 38.8311 36.8226 38.322 37.322C37.822 37.8303 37.2173 38.2238 36.55 38.475C35.913 38.722 35.187 38.89 34.122 38.94C33.056 38.987 32.717 39 30 39C27.283 39 26.944 38.99 25.878 38.94C24.813 38.89 24.088 38.722 23.45 38.475C22.7823 38.2245 22.1775 37.8309 21.678 37.322C21.1694 36.8222 20.7759 36.2175 20.525 35.55C20.277 34.913 20.11 34.187 20.06 33.122C20.013 32.056 20 31.717 20 29C20 26.283 20.01 25.944 20.06 24.878C20.11 23.812 20.277 23.088 20.525 22.45C20.7752 21.7822 21.1688 21.1773 21.678 20.678C22.1777 20.1692 22.7824 19.7757 23.45 19.525C24.088 19.277 24.812 19.11 25.878 19.06C26.944 19.013 27.283 19 30 19ZM30 24C28.6739 24 27.4021 24.5268 26.4645 25.4645C25.5268 26.4021 25 27.6739 25 29C25 30.3261 25.5268 31.5979 26.4645 32.5355C27.4021 33.4732 28.6739 34 30 34C31.3261 34 32.5979 33.4732 33.5355 32.5355C34.4732 31.5979 35 30.3261 35 29C35 27.6739 34.4732 26.4021 33.5355 25.4645C32.5979 24.5268 31.3261 24 30 24V24ZM36.5 23.75C36.5 23.4185 36.3683 23.1005 36.1339 22.8661C35.8995 22.6317 35.5815 22.5 35.25 22.5C34.9185 22.5 34.6005 22.6317 34.3661 22.8661C34.1317 23.1005 34 23.4185 34 23.75C34 24.0815 34.1317 24.3995 34.3661 24.6339C34.6005 24.8683 34.9185 25 35.25 25C35.5815 25 35.8995 24.8683 36.1339 24.6339C36.3683 24.3995 36.5 24.0815 36.5 23.75ZM30 26C30.7956 26 31.5587 26.3161 32.1213 26.8787C32.6839 27.4413 33 28.2044 33 29C33 29.7956 32.6839 30.5587 32.1213 31.1213C31.5587 31.6839 30.7956 32 30 32C29.2044 32 28.4413 31.6839 27.8787 31.1213C27.3161 30.5587 27 29.7956 27 29C27 28.2044 27.3161 27.4413 27.8787 26.8787C28.4413 26.3161 29.2044 26 30 26V26Z" fill="#FF5300"/>
<defs>
<filter id="filter0_d_162_8165" x="0" y="0" width="60" height="60" filterUnits="userSpaceOnUse" color-interpolation-filters="sRGB">
<feFlood flood-opacity="0" result="BackgroundImageFix"/>
<feColorMatrix in="SourceAlpha" type="matrix" values="0 0 0 0 0 0 0 0 0 0 0 0 0 0 0 0 0 0 127 0" result="hardAlpha"/>
<feOffset dy="1"/>
<feGaussianBlur stdDeviation="5"/>
<feColorMatrix type="matrix" values="0 0 0 0 0 0 0 0 0 0 0 0 0 0 0 0 0 0 0.1 0"/>
<feBlend mode="normal" in2="BackgroundImageFix" result="effect1_dropShadow_162_8165"/>
<feBlend mode="normal" in="SourceGraphic" in2="effect1_dropShadow_162_8165" result="shape"/>
</filter>
</defs>
</svg>
