<svg width="60" height="60" viewBox="0 0 60 60" fill="none" xmlns="http://www.w3.org/2000/svg">
<g filter="url(#filter0_d_162_8171)">
<rect x="10" y="9" width="40" height="40" fill="white"/>
</g>
<path d="M31.3102 37.4002C29.9879 37.6067 28.6355 37.4981 27.3631 37.0832C26.0907 36.6683 24.9343 35.9588 23.9879 35.0124C23.0416 34.0661 22.3321 32.9096 21.9171 31.6372C21.5022 30.3648 21.3936 29.0125 21.6002 27.6902C21.0789 26.6987 20.8884 25.5664 21.0566 24.459C21.2247 23.3515 21.7427 22.3268 22.5348 21.5348C23.3268 20.7427 24.3515 20.2247 25.459 20.0566C26.5664 19.8884 27.6987 20.0789 28.6902 20.6002C30.0125 20.3936 31.3648 20.5022 32.6372 20.9171C33.9096 21.3321 35.0661 22.0416 36.0124 22.9879C36.9588 23.9343 37.6683 25.0907 38.0832 26.3631C38.4981 27.6355 38.6067 28.9879 38.4002 30.3102C38.9214 31.3016 39.1119 32.4339 38.9437 33.5413C38.7756 34.6488 38.2576 35.6735 37.4655 36.4655C36.6735 37.2576 35.6488 37.7756 34.5413 37.9437C33.4339 38.1119 32.3016 37.9214 31.3102 37.4002ZM30.0522 34.1562H30.0122C32.8842 34.1562 34.3152 32.7702 34.3152 30.9132C34.3152 29.7152 33.7642 28.4422 31.5892 27.9552L29.6062 27.5152C28.8512 27.3432 27.9842 27.1152 27.9842 26.4002C27.9842 25.6852 28.6042 25.1872 29.7082 25.1872C31.9382 25.1872 31.7352 26.7152 32.8392 26.7152C33.4152 26.7152 33.9322 26.3732 33.9322 25.7852C33.9322 24.4152 31.7352 23.3852 29.8762 23.3852C27.8552 23.3852 25.7032 24.2442 25.7032 26.5292C25.7032 27.6272 26.0972 28.7992 28.2632 29.3422L30.9522 30.0132C31.7682 30.2152 31.9702 30.6722 31.9702 31.0852C31.9702 31.7722 31.2862 32.4432 30.0522 32.4432C27.6352 32.4432 27.9742 30.5862 26.6782 30.5862C26.0982 30.5862 25.6752 30.9842 25.6752 31.5572C25.6752 32.6712 27.0272 34.1552 30.0522 34.1552V34.1562Z" fill="#FF5300"/>
<defs>
<filter id="filter0_d_162_8171" x="0" y="0" width="60" height="60" filterUnits="userSpaceOnUse" color-interpolation-filters="sRGB">
<feFlood flood-opacity="0" result="BackgroundImageFix"/>
<feColorMatrix in="SourceAlpha" type="matrix" values="0 0 0 0 0 0 0 0 0 0 0 0 0 0 0 0 0 0 127 0" result="hardAlpha"/>
<feOffset dy="1"/>
<feGaussianBlur stdDeviation="5"/>
<feColorMatrix type="matrix" values="0 0 0 0 0 0 0 0 0 0 0 0 0 0 0 0 0 0 0.1 0"/>
<feBlend mode="normal" in2="BackgroundImageFix" result="effect1_dropShadow_162_8171"/>
<feBlend mode="normal" in="SourceGraphic" in2="effect1_dropShadow_162_8171" result="shape"/>
</filter>
</defs>
</svg>
