<svg width="60" height="60" viewBox="0 0 60 60" fill="none" xmlns="http://www.w3.org/2000/svg">
<g filter="url(#filter0_d_162_8168)">
<rect x="10" y="9" width="40" height="40" fill="white"/>
</g>
<path d="M40.1623 22.6559C39.3989 22.9936 38.5893 23.2154 37.7603 23.3139C38.634 22.7914 39.288 21.9689 39.6003 20.9999C38.7803 21.4879 37.8813 21.8299 36.9443 22.0149C36.3149 21.3415 35.4807 20.8949 34.5713 20.7445C33.6618 20.5941 32.7282 20.7484 31.9156 21.1834C31.1029 21.6183 30.4567 22.3096 30.0774 23.1497C29.6981 23.9898 29.607 24.9317 29.8183 25.8289C28.1554 25.7456 26.5286 25.3134 25.0436 24.5606C23.5585 23.8077 22.2484 22.751 21.1983 21.4589C20.8266 22.0974 20.6313 22.8232 20.6323 23.5619C20.6323 25.0119 21.3703 26.2929 22.4923 27.0429C21.8283 27.022 21.1789 26.8427 20.5983 26.5199V26.5719C20.5985 27.5376 20.9327 28.4735 21.5441 29.221C22.1556 29.9684 23.0068 30.4814 23.9533 30.6729C23.3369 30.84 22.6906 30.8646 22.0633 30.7449C22.3302 31.5762 22.8503 32.3031 23.5509 32.824C24.2515 33.3449 25.0974 33.6337 25.9703 33.6499C25.1028 34.3313 24.1095 34.8349 23.0472 35.1321C21.9849 35.4293 20.8744 35.5142 19.7793 35.3819C21.691 36.6114 23.9164 37.264 26.1893 37.2619C33.8823 37.2619 38.0893 30.8889 38.0893 25.3619C38.0893 25.1819 38.0843 24.9999 38.0763 24.8219C38.8952 24.2301 39.6019 23.4969 40.1633 22.6569L40.1623 22.6559Z" fill="#FF5300"/>
<defs>
<filter id="filter0_d_162_8168" x="0" y="0" width="60" height="60" filterUnits="userSpaceOnUse" color-interpolation-filters="sRGB">
<feFlood flood-opacity="0" result="BackgroundImageFix"/>
<feColorMatrix in="SourceAlpha" type="matrix" values="0 0 0 0 0 0 0 0 0 0 0 0 0 0 0 0 0 0 127 0" result="hardAlpha"/>
<feOffset dy="1"/>
<feGaussianBlur stdDeviation="5"/>
<feColorMatrix type="matrix" values="0 0 0 0 0 0 0 0 0 0 0 0 0 0 0 0 0 0 0.1 0"/>
<feBlend mode="normal" in2="BackgroundImageFix" result="effect1_dropShadow_162_8168"/>
<feBlend mode="normal" in="SourceGraphic" in2="effect1_dropShadow_162_8168" result="shape"/>
</filter>
</defs>
</svg>
